<?xml version="1.0" encoding="UTF-8" standalone="no"?>
<!-- Created with Inkscape (http://www.inkscape.org/) -->

<svg
   xmlns:dc="http://purl.org/dc/elements/1.1/"
   xmlns:cc="http://creativecommons.org/ns#"
   xmlns:rdf="http://www.w3.org/1999/02/22-rdf-syntax-ns#"
   xmlns:svg="http://www.w3.org/2000/svg"
   xmlns="http://www.w3.org/2000/svg"
   xmlns:sodipodi="http://sodipodi.sourceforge.net/DTD/sodipodi-0.dtd"
   xmlns:inkscape="http://www.inkscape.org/namespaces/inkscape"
   id="svg2"
   version="1.1"
   inkscape:version="0.48.2 r9819"
   width="640"
   height="640"
   xml:space="preserve"
   sodipodi:docname="LetSeeLogoSquare.svg"
   inkscape:export-filename="D:\design\LetSee\Logo\LetSeeLogoSquare6400.png"
   inkscape:export-xdpi="90"
   inkscape:export-ydpi="90"><metadata
     id="metadata8"><rdf:RDF><cc:Work
         rdf:about=""><dc:format>image/svg+xml</dc:format><dc:type
           rdf:resource="http://purl.org/dc/dcmitype/StillImage" /><dc:title></dc:title></cc:Work></rdf:RDF></metadata><defs
     id="defs6"><clipPath
       clipPathUnits="userSpaceOnUse"
       id="clipPath20"><path
         d="m 0,53.86 274.96,0 L 274.96,0 0,0 0,53.86 z"
         id="path22"
         inkscape:connector-curvature="0" /></clipPath></defs><sodipodi:namedview
     pagecolor="#ffffff"
     bordercolor="#666666"
     borderopacity="1"
     objecttolerance="10"
     gridtolerance="10"
     guidetolerance="10"
     inkscape:pageopacity="0"
     inkscape:pageshadow="2"
     inkscape:window-width="1440"
     inkscape:window-height="848"
     id="namedview4"
     showgrid="false"
     fit-margin-top="2"
     fit-margin-left="2"
     fit-margin-right="2"
     fit-margin-bottom="2"
     inkscape:zoom="0.47861506"
     inkscape:cx="-411.5487"
     inkscape:cy="18.186559"
     inkscape:window-x="-8"
     inkscape:window-y="-8"
     inkscape:window-maximized="1"
     inkscape:current-layer="g10" /><g
     id="g10"
     inkscape:groupmode="layer"
     inkscape:label="LetSee logo"
     transform="matrix(1.25,0,0,-1.25,-11.861,639.24963)"><g
       id="g3072"
       transform="matrix(9.307032,0,0,9.3200945,-87.46922,16.951144)"><g
         transform="translate(58.0068,48.4497)"
         id="g44"><path
           inkscape:connector-curvature="0"
           id="path46"
           style="fill:#040606;fill-opacity:1;fill-rule:nonzero;stroke:none"
           d="M 0,0 C 2.611,-4.342 4.116,-9.426 4.116,-14.865 4.113,-30.82 -8.82,-43.757 -24.78,-43.757 c -8.891,0 -16.838,4.018 -22.138,10.331 5.054,-8.404 14.259,-14.024 24.779,-14.024 15.958,0 28.891,12.932 28.891,28.89 C 6.752,-11.491 4.212,-5.02 0,0" /></g><g
         transform="translate(35.9575,10.7051)"
         id="g48"><path
           inkscape:connector-curvature="0"
           id="path50"
           style="fill:#040606;fill-opacity:1;fill-rule:nonzero;stroke:none"
           d="m 0,0 c -12.174,0 -22.042,9.867 -22.042,22.042 0,6.78 3.065,12.843 7.881,16.886 -6.411,-3.856 -10.7,-10.875 -10.7,-18.902 0,-12.172 9.87,-22.042 22.042,-22.042 5.392,0 10.327,1.941 14.159,5.156 C 8.027,1.145 4.147,0 0,0" /></g><g
         transform="translate(24.5869,32.6431)"
         id="g52"><path
           inkscape:connector-curvature="0"
           id="path54"
           style="fill:#040606;fill-opacity:1;fill-rule:nonzero;stroke:none"
           d="m 0,0 c 0,7.367 5.973,13.34 13.338,13.34 7.366,0 13.338,-5.973 13.338,-13.34 0,-7.365 -5.972,-13.337 -13.338,-13.337 C 5.973,-13.337 0,-7.365 0,0 m 13.359,4.583 c 0,-0.374 0.056,-0.732 0.14,-1.078 0.022,-0.109 0.063,-0.207 0.094,-0.314 0.075,-0.236 0.165,-0.465 0.274,-0.686 0.054,-0.103 0.11,-0.207 0.168,-0.309 0.131,-0.215 0.278,-0.418 0.444,-0.607 0.061,-0.075 0.114,-0.153 0.18,-0.221 0.238,-0.249 0.498,-0.475 0.785,-0.662 0.009,-0.005 0.016,-0.013 0.024,-0.021 l 0.035,-0.013 c 0.574,-0.369 1.236,-0.6 1.946,-0.688 l 0.096,-0.031 c 0.154,-0.016 0.309,-0.024 0.468,-0.024 2.568,0 4.654,2.081 4.654,4.654 0,2.568 -2.086,4.651 -4.654,4.651 -2.571,0 -4.654,-2.083 -4.654,-4.651" /></g><g
         transform="translate(37.9243,47.416)"
         id="g56"><path
           inkscape:connector-curvature="0"
           id="path58"
           style="fill:#3e71a8;fill-opacity:1;fill-rule:nonzero;stroke:none"
           d="m 0,0 c -8.144,0 -14.77,-6.627 -14.77,-14.773 0,-8.144 6.626,-14.771 14.77,-14.771 8.145,0 14.771,6.627 14.771,14.771 C 14.771,-6.627 8.145,0 0,0 m 0,-32.297 c -9.661,0 -17.522,7.86 -17.522,17.524 0,9.662 7.861,17.526 17.522,17.526 9.663,0 17.524,-7.864 17.524,-17.526 0,-9.664 -7.861,-17.524 -17.524,-17.524" /></g></g></g></svg>